<?xml version="1.0" encoding="utf-8"?>
<!-- Generator: Adobe Illustrator 21.1.0, SVG Export Plug-In . SVG Version: 6.00 Build 0)  -->
<svg version="1.1" id="a5860ba0-ef67-4914-ac96-07e2ebcccb4f"
	 xmlns="http://www.w3.org/2000/svg" xmlns:xlink="http://www.w3.org/1999/xlink" x="0px" y="0px" viewBox="0 0 1095.7 664"
	 style="enable-background:new 0 0 1095.7 664;" xml:space="preserve">
<style type="text/css">
	.st0{fill:#3F3D56;}
	.st1{opacity:0.1;enable-background:new    ;}
	.st2{fill:#2FC0BE;}
	.st3{fill:#D0CDE1;}
	.st4{fill:#FFB8B8;}
	.st5{fill:#2F2E41;}
</style>
<title>abstract</title>
<rect x="0" y="661" class="st0" width="394.7" height="2"/>
<polygon class="st0" points="377.7,429 377.7,643 1095.7,643 1095.7,0 377.7,0 377.7,216 621.7,216 621.7,429 "/>
<polygon class="st1" points="621.7,216 621.7,429 619.7,429 619.7,643 1095.7,643 1095.7,429 870.7,429 870.7,216 1095.7,216 
	1095.7,0 846.7,0 846.7,213 626.7,213 626.7,0 377.7,0 377.7,216 "/>
<path class="st2" d="M1095.7,0v172c-95,0-172-77-172-172L1095.7,0z"/>
<path class="st1" d="M971.7,0c0,68.5,55.5,124,124,124V80c-44.2,0-80-35.8-80-80L971.7,0z"/>
<polygon class="st3" points="542.7,60 542.7,84 377.7,84 377.7,115 542.7,115 578.7,115 578.7,84 578.7,60 578.7,29 578.7,0 
	542.7,0 542.7,29 377.7,29 377.7,60 "/>
<path class="st3" d="M736.7,411.2V525h-45v22h45v48h22v-48h132.8c4.9,36,33.2,64.3,69.2,69.2c44.3,6.1,85.2-24.9,91.2-69.2
	c6.1-44.3-24.9-85.2-69.2-91.2c-44.3-6.1-85.2,24.9-91.2,69.2H758.7V411.2c40.1-5.5,70-39.8,70-80.3c0-44.7-36.3-81-81-81
	s-81,36.3-81,81C666.7,371.5,696.6,405.7,736.7,411.2z"/>
<polygon class="st3" points="505.2,507.6 541.3,570 469.2,570 397.2,570 433.2,507.6 469.2,445.3 "/>
<polygon class="st2" points="484.7,578 462.2,617 534.2,617 606.3,617 570.2,554.6 534.2,492.3 521,515.2 521.2,515.6 557.3,578 
	485.2,578 "/>
<polygon class="st3" points="909.7,345 909.7,393 1043.7,393 1043.7,259 909.7,259 909.7,291 936.7,291 936.7,345 "/>
<rect x="956.7" y="234" class="st2" width="50" height="50"/>
<path class="st4" d="M124.4,237.5l24.8,61.4l78.7,23.6c0,0,43,12.2,43-2c0-20-36-16-36-16l-59.7-20.9l-16.5-43.7L124.4,237.5z"/>
<rect x="226.7" y="228" class="st2" width="234" height="202"/>
<polygon class="st0" points="384.2,351.6 420.3,414 348.2,414 276.2,414 312.2,351.6 348.2,289.3 "/>
<polygon class="st3" points="364.7,362.7 381.1,391 348.4,391 315.7,391 332.1,362.7 348.4,334.4 "/>
<polygon class="st3" points="364.7,270.7 381.1,299 348.4,299 315.7,299 332.1,270.7 348.4,242.4 "/>
<path class="st5" d="M109.5,277.6c1.2,2.4,49.6-4.7,49.6-4.7s-2.4-2.4-10.6-33.1s-24.8-28.4-24.8-28.4
	C98.9,218.5,108.4,275.3,109.5,277.6z"/>
<circle class="st4" cx="133.2" cy="167.7" r="31.9"/>
<path class="st4" d="M111.9,183.1c1.2,3.5-4.7,21.3-4.7,21.3C93,215,96.5,232.7,96.5,232.7s47.3-4.7,43.7-8.3s7.1-30.7,7.1-30.7
	S110.7,179.5,111.9,183.1z"/>
<path class="st5" d="M104.8,203.2c-20.3,10.6-11.3,134.7,8.3,134.7l-4.7,13c-35.5,28.4-21.3,68.5-21.3,68.5L26.8,655.8
	c0,0,48.5,8.3,78,8.3c29.5,0,41.4-197.3,41.4-197.3s42.5,184.3,44.9,187.9s35.5-1.2,72.1-16.5s-72.1-243.4-72.1-243.4v-12.2
	c0.1-19.7-2.1-39.4-6.4-58.7c-2.8-12.4-4.9-28.4-1.9-42.5c5.9-28.4-10.6-34.3-10.6-34.3s-7.1-4.7-21.3-20.1
	c-8.9-9.4-19.8-16.7-31.9-21.3C109.5,199.6,104.8,203.2,104.8,203.2z"/>
<path class="st4" d="M114.3,267l24.8,61.4l78.7,23.6c0,0,43,12.2,43-2c0-20-36-16-36-16l-59.7-20.9l-16.5-43.7L114.3,267z"/>
<ellipse class="st5" cx="227.1" cy="652.2" rx="20.7" ry="11.8"/>
<ellipse class="st5" cx="68.8" cy="652.2" rx="20.7" ry="11.8"/>
<path class="st5" d="M81.1,178.1v26.4h6L86,193.2l4.4,11.3h53.2l-1.2-12.5l4.8,12.5h8.3v-33.6c0-5.6-0.7-11.1-2.1-16.6h4.6l1.3-6.7
	l0.9,6.7h5.5v0c0-18.2-13.2-33-29.6-33h-0.8c-3.2,0-6.4,0.7-9.3,2.2c-1.6-0.3-3.2-0.5-4.9-0.5h0C98.9,123,81.1,147.7,81.1,178.1z"/>
</svg>
