<svg id="line-white.svg" xmlns="http://www.w3.org/2000/svg" width="129.97" height="11.97" viewBox="0 0 129.97 11.97">
  <defs>
    <style>
      .cls-1 {
        fill: #fff;
        fill-rule: evenodd;
      }
    </style>
  </defs>
  <path class="cls-1" d="M1170.79,3175.71c-1.93,2.1-3.14,3.29-5.69,3.29s-3.76-1.19-5.68-3.29c-1.92-2.08-4.3-4.68-8.94-4.68s-7.01,2.6-8.92,4.68c-1.92,2.1-3.14,3.29-5.68,3.29s-3.75-1.19-5.68-3.29c-1.91-2.08-4.29-4.68-8.93-4.68s-7.02,2.6-8.93,4.68c-1.92,2.1-3.13,3.29-5.68,3.29s-3.75-1.19-5.67-3.29c-1.92-2.08-4.3-4.68-8.93-4.68s-7.02,2.6-8.93,4.68c-1.93,2.1-3.14,3.29-5.68,3.29s-3.75-1.19-5.67-3.29c-1.92-2.08-4.3-4.68-8.93-4.68s-7.02,2.6-8.93,4.68c-1.72,1.88-2.88,3.02-4.93,3.24v4.01c4.13-.27,6.37-2.66,8.18-4.63,1.92-2.1,3.13-3.29,5.68-3.29s3.75,1.19,5.67,3.29,4.3,4.68,8.93,4.68,7.02-2.59,8.93-4.68,3.13-3.29,5.68-3.29,3.75,1.19,5.67,3.29,4.3,4.68,8.93,4.68,7.02-2.59,8.93-4.68c1.93-2.1,3.14-3.29,5.68-3.29s3.76,1.19,5.68,3.29,4.29,4.68,8.93,4.68,7.02-2.59,8.93-4.68,3.13-3.29,5.67-3.29,3.76,1.19,5.69,3.29c1.91,2.09,4.29,4.68,8.93,4.68s7.02-2.59,8.94-4.68c1.72-1.88,2.88-3.02,4.94-3.24v-4.01C1174.84,3171.35,1172.59,3173.74,1170.79,3175.71Z" transform="translate(-1049 -3171.03)"/>
</svg>
